# xmcd
#
# Track frame offsets:
#	150
#	37779
#	88486
#	125377
#	164178
#	215460
#	250611
#	259048
#	310183
#	320494
#
# Disc length: 4777 seconds
#
# Revision: 1
# Processed by: cddbd v1.5.2PL0 Copyright (c) Steve Scherf et al.
# Submitted via: audiograbber 1.83.01
#
DISCID=8912a70a
DTITLE=Grateful Dead - 78-11-13A Boston Music Hall, Boston MA
DYEAR=1900
DGENRE=
TTITLE0=Mississippi Half-Step
TTITLE1=Franklin's Tower
TTITLE2=Samson and Delilah
TTITLE3=Friend Of The Devil
TTITLE4=Playing In The Band
TTITLE5=Drums
TTITLE6=Space
TTITLE7=Black Peter
TTITLE8=Playing In The Band
TTITLE9=Around and Around
EXTD=
EXTT0=
EXTT1=
EXTT2=
EXTT3=
EXTT4=
EXTT5=
EXTT6=
EXTT7=
EXTT8=
EXTT9=
PLAYORDER=
